<?xml version="1.0" encoding="utf-8"?>
<!-- Generator: Adobe Illustrator 16.0.0, SVG Export Plug-In . SVG Version: 6.00 Build 0)  -->
<!DOCTYPE svg PUBLIC "-//W3C//DTD SVG 1.1//EN" "http://www.w3.org/Graphics/SVG/1.1/DTD/svg11.dtd">
<svg version="1.1" id="Layer_1" xmlns="http://www.w3.org/2000/svg" xmlns:xlink="http://www.w3.org/1999/xlink" x="0px" y="0px"
	 width="128px" height="128px" viewBox="0 0 128 128" enable-background="new 0 0 128 128" xml:space="preserve">
<g>
	<g>
		<g>
			<g>
				<g>
					<polygon fill="#282D33" points="18.475,116.49 25.313,92.84 28.037,90.053 30.897,92.85 28.877,94.916 24.36,110.537 
						39.579,105.946 41.593,103.891 44.45,106.689 41.718,109.479 					"/>
				</g>
				<g>
					<path fill="#282D33" d="M85.656,35.503l12.162,12.415L43.205,103.68L31.046,91.268L85.656,35.503 M85.656,29.877l-60.12,61.389
						l17.668,18.041l60.124-61.389L85.656,29.877L85.656,29.877z"/>
				</g>
				<g>
					
						<rect x="63.656" y="28.967" transform="matrix(0.7144 0.6997 -0.6997 0.7144 66.5747 -26.4233)" fill="#282D33" width="4" height="78.752"/>
				</g>
				<g>
					<polygon fill="#282D33" points="100.871,53.287 98.014,50.488 109.32,38.942 94.447,23.759 83.203,35.245 80.346,32.446 
						94.447,18.042 114.92,38.942 					"/>
				</g>
			</g>
		</g>
		<g>
			<path fill="#282D33" d="M116.615,33.987l-2.859-2.798l3.021-3.086c0.252-0.257,0.252-0.691,0-0.949L105.893,16.04
				c-0.143-0.145-0.299-0.175-0.406-0.175l0,0c-0.105,0-0.262,0.03-0.402,0.175l-3.025,3.086l-2.857-2.8l3.023-3.084
				c0.865-0.886,2.023-1.376,3.258-1.377c0.002,0,0.004,0,0.004,0c1.234,0,2.393,0.488,3.264,1.375l10.885,11.116
				c1.768,1.806,1.768,4.741,0,6.545L116.615,33.987z"/>
		</g>
	</g>
	<g>
		<g>
			<polygon fill="#282D33" points="97.107,128 7.04,128 7.04,33.945 11.04,33.945 11.04,124 93.107,124 93.107,66.271 
				97.107,66.271 			"/>
		</g>
		<g>
			<polygon fill="#282D33" points="97.107,9.314 93.107,9.314 93.107,4 40.319,4 40.319,0 97.107,0 			"/>
		</g>
		<g>
			<g>
				<path fill="#282D33" d="M33.588,27.463H7.805L33.588,1.134V27.463z M17.32,23.463h12.268V10.936L17.32,23.463z"/>
			</g>
		</g>
	</g>
</g>
</svg>
